<svg xmlns="http://www.w3.org/2000/svg" width="105" height="72" fill="none"><path fill="#fff" d="M0 0h104.28v72H0z"/><g clip-path="url(#a)"><path fill="#232F3E" d="M34.622 29.423c-.027.805.075 1.61.302 2.383q.352.995.865 1.917c.114.182.179.391.186.606a1.03 1.03 0 0 1-.512.8l-1.682 1.12c-.207.142-.45.224-.702.234a1.12 1.12 0 0 1-.8-.374 6 6 0 0 1-.959-1.238q-.394-.675-.817-1.564-3.13 3.69-7.847 3.691-3.364 0-5.326-1.916t-1.962-5.139q0-3.405 2.43-5.488 2.428-2.082 6.54-2.08c.944.003 1.888.074 2.823.212q1.474.207 3.062.582v-1.96q0-3.038-1.263-4.27-1.262-1.235-4.345-1.247c-.969.003-1.934.12-2.875.35q-1.464.35-2.862.912a7 7 0 0 1-.934.35q-.205.06-.419.072-.56 0-.56-.84v-1.309a1.73 1.73 0 0 1 .186-.934 1.9 1.9 0 0 1 .748-.56 17.4 17.4 0 0 1 3.363-1.215A16.3 16.3 0 0 1 25.416 12q4.765 0 6.982 2.173 2.22 2.172 2.221 6.564zm-10.837 4.065a8.6 8.6 0 0 0 2.754-.491 5.8 5.8 0 0 0 2.523-1.706c.431-.49.743-1.072.91-1.703a9 9 0 0 0 .267-2.311v-1.124a23 23 0 0 0-2.453-.443 20 20 0 0 0-2.499-.163q-2.67 0-3.971 1.068-1.303 1.067-1.308 3.083 0 1.868.982 2.827t2.795.963m21.44 2.896a1.67 1.67 0 0 1-1.028-.267 2.07 2.07 0 0 1-.56-1.051l-6.26-20.648a4.8 4.8 0 0 1-.232-1.067.577.577 0 0 1 .654-.654h2.616c.37-.032.739.062 1.049.267.268.295.453.657.534 1.049l4.484 17.66 4.162-17.655c.125-.534.296-.878.515-1.05a1.75 1.75 0 0 1 1.067-.266h2.15c.375-.027.749.066 1.067.267q.323.267.513 1.049l4.204 17.885 4.626-17.885c.08-.392.264-.754.534-1.05.31-.204.68-.298 1.051-.266h2.475a.576.576 0 0 1 .654.654q-.003.21-.046.42-.075.331-.186.653L62.82 35.076a2.1 2.1 0 0 1-.56 1.052 1.67 1.67 0 0 1-1.028.267h-2.29a1.64 1.64 0 0 1-1.068-.28 2.02 2.02 0 0 1-.516-1.068l-4.156-17.188-4.11 17.188c-.062.4-.241.771-.516 1.068-.313.213-.69.312-1.067.28zm34.287.702a18.2 18.2 0 0 1-4.11-.467 12 12 0 0 1-3.084-1.068 1.55 1.55 0 0 1-.99-1.513v-1.335q-.001-.837.606-.838c.168.002.335.033.491.094.171.061.398.154.678.266a14 14 0 0 0 2.937.935c1.044.217 2.109.327 3.176.328q2.523 0 3.9-.886a2.84 2.84 0 0 0 1.38-2.523 2.57 2.57 0 0 0-.726-1.868q-.723-.748-2.685-1.402l-3.876-1.214q-2.936-.937-4.271-2.712a6.32 6.32 0 0 1-1.335-3.876 5.93 5.93 0 0 1 .724-2.966 7.2 7.2 0 0 1 1.913-2.197 8.5 8.5 0 0 1 2.782-1.377A12 12 0 0 1 80.385 12q.902.002 1.797.117.912.118 1.73.305c.533.122 1.051.267 1.518.419q.582.185 1.121.467c.31.161.582.384.801.654.17.264.251.575.235.889v1.26q0 .84-.609.84a2.9 2.9 0 0 1-1.027-.325 12.4 12.4 0 0 0-5.139-1.028q-2.29 0-3.55.745t-1.26 2.384a2.54 2.54 0 0 0 .801 1.892q.801.77 2.936 1.471l3.783 1.215q2.896.936 4.134 2.57a6.03 6.03 0 0 1 1.24 3.737 6.75 6.75 0 0 1-.703 3.105 7.06 7.06 0 0 1-1.938 2.36 8.7 8.7 0 0 1-2.965 1.494c-1.228.353-2.5.526-3.778.515"/><path fill="#F90" fill-rule="evenodd" d="M84.563 50.067C75.773 56.551 63.033 60 52.06 60c-15.376 0-29.224-5.683-39.701-15.146-.825-.742-.091-1.756.9-1.182 11.304 6.58 25.286 10.54 39.724 10.54a79 79 0 0 0 30.303-6.2c1.484-.627 2.725.974 1.278 2.055" clip-rule="evenodd"/><path fill="#F90" fill-rule="evenodd" d="M88.22 45.89c-1.126-1.44-7.431-.681-10.263-.342-.86.104-.993-.646-.22-1.19 5.032-3.535 13.275-2.512 14.234-1.335s-.254 9.457-4.968 13.4c-.726.608-1.417.283-1.094-.518 1.06-2.648 3.435-8.574 2.311-10.015" clip-rule="evenodd"/></g><defs><clipPath id="a"><path fill="#fff" d="M12 12h80.275v48H12z"/></clipPath></defs></svg>